<svg xmlns="http://www.w3.org/2000/svg" viewBox="0 0 249.14 27.29"><defs><style>.cls-1{fill:#d09b2c;}.cls-2{fill:#fff;fill-rule:evenodd;}</style></defs><g id="Layer_2" data-name="Layer 2"><g id="Calque_1" data-name="Calque 1"><path class="cls-1" d="M22.78,24.66a14.66,14.66,0,0,1-8.91,2.63C9.1,27.29,4,24.86,2.42,24.91a3,3,0,0,0-1.37.24c-.67.28-1.1-.16-1-.54A5.45,5.45,0,0,1,1,23a9.15,9.15,0,0,1,2.05-1.87,7.46,7.46,0,0,1,5.28-1.41,1.87,1.87,0,0,1,1.19.67c1.54,1.48,4.32,3.34,6.46,3.72.22,0,1.19.12,1.21-.15s-.26-.23-.35-.25a15,15,0,0,1-7.31-4.18A17.6,17.6,0,0,1,6,14.72c-.69-1.34-1.67-4-3.45-4.9-.39-.19-.4-.92.42-1.11a13.54,13.54,0,0,1,8.26,1.78,4.49,4.49,0,0,1,2.23,2.13s.1.05.12.48c.22,6,2.87,8,4.15,9,.52.4,1.16.57,1.34.39s-.13-.27-.27-.36c-3.69-2.43-4.4-5.6-4.6-9s1.23-6.32,2.14-8.72a5.6,5.6,0,0,0,.25-3.19c-.26-.89,0-1.1.51-1.17S18.3,1,18.56,1.27a14.24,14.24,0,0,1,1.86,3,21,21,0,0,1,2,8.73c0,2.82-.56,3-1.9,3.64a2.51,2.51,0,0,0-1.74,2.21c0,.89.66,1.55,1.87,2.06l.29.09c.53.13,1,0,1-.19s-.52-.25-.52-.25c-1.18-.29-2-1-2-1.71,0-1,1.45-2.08,3.3-2.08h.2c1.85,0,3.29,1,3.29,2.07,0,.76-.81,1.43-2,1.72,0,0-.53.07-.53.24s.44.33,1,.2l.29-.09c1.21-.51,1.87-1.18,1.87-2.06A2.5,2.5,0,0,0,25,16.64C23.7,16,23.19,15.82,23.15,13a20.91,20.91,0,0,1,2-8.73,13.72,13.72,0,0,1,1.87-3C27.26,1,28-.07,28.51,0s.76.29.5,1.17a5.6,5.6,0,0,0,.26,3.2c.89,2.4,2.33,5.34,2.13,8.72s-.91,6.56-4.6,9c-.14.1-.34.28-.26.37s.82,0,1.34-.39c1.27-.93,3.92-2.95,4.14-9,0-.43.13-.49.13-.49a4.45,4.45,0,0,1,2.22-2.12,13.55,13.55,0,0,1,8.26-1.78c.83.19.82.92.42,1.1-1.78.9-2.75,3.56-3.45,4.91A17,17,0,0,1,36,19.56a15.05,15.05,0,0,1-7.3,4.18c-.09,0-.36.08-.35.25s1,.17,1.21.15c2.14-.38,4.91-2.25,6.46-3.72a1.87,1.87,0,0,1,1.19-.67,7.47,7.47,0,0,1,5.28,1.41,8.65,8.65,0,0,1,2,1.87,5.51,5.51,0,0,1,1,1.58c.06.38-.38.82-1,.54a3.2,3.2,0,0,0-1.37-.25c-1.6,0-6.69,2.39-11.46,2.38A14.68,14.68,0,0,1,22.78,24.66Z"/><path class="cls-2" d="M66.63,8.51H65l-6.29,13.7L52.32,8.51H48.24a8.07,8.07,0,0,1,2.18,2.94l7,15.09H58L65.07,11A9.63,9.63,0,0,1,66.63,8.51Z"/><path class="cls-2" d="M70.59,10.19a1.69,1.69,0,0,0-1.71-1.55,1.67,1.67,0,0,0-1.67,1.55,1.66,1.66,0,0,0,1.67,1.52A1.68,1.68,0,0,0,70.59,10.19Zm.22,16.09a5.49,5.49,0,0,1-.51-2.78V16.33a5.38,5.38,0,0,1,.51-2.74H67a5.38,5.38,0,0,1,.51,2.74V23.5A4.73,4.73,0,0,1,67,26.28Z"/><path class="cls-2" d="M87.12,18.64c-.51-5.05-4.54-5.61-7.05-5.34-5.49.62-7.37,4.92-6.94,7.56a6.92,6.92,0,0,0,2.66,4.33,8.73,8.73,0,0,0,10.06-.27l-.54-.59a6.63,6.63,0,0,1-4.15,1.25C78.44,25.46,76,23,76.4,18.64Zm-3.34-1H76.62a4.16,4.16,0,0,1,3.89-3.43C81.35,14.16,83.6,14.26,83.78,17.65Z"/><path class="cls-2" d="M98.15,23.64c-1.3,1.42-2.29,2.08-3.6,2a2.46,2.46,0,0,1-2.72-2.61V14.59h5.59v-1H91.83V11.28L88.7,12A3.88,3.88,0,0,1,89,13.59H88.2v1H89v8.15c0,3.07,2.8,3.74,4.47,3.77a7.19,7.19,0,0,0,4.18-1.12Z"/><path class="cls-2" d="M113.43,26.28a6.7,6.7,0,0,1-.47-2.74V17.39c0-1.85-.25-2.24-1.16-3a6.5,6.5,0,0,0-3.93-1,7.67,7.67,0,0,0-5.27,2.88,5.28,5.28,0,0,0-.32-2.65H98.94a6,6,0,0,1,.87,3.3v6.65a4.74,4.74,0,0,1-.51,2.74h3.82a6.25,6.25,0,0,1-.52-2.74v-4.1a5.44,5.44,0,0,1,4.88-5c2.36-.07,2.68,1.09,2.68,4.25v4.8a5,5,0,0,1-.51,2.74Z"/><path class="cls-2" d="M129.26,26.28a5.44,5.44,0,0,1-1.19-3.37V18.68a6.61,6.61,0,0,0-.26-2.51c-1-2.87-5.85-3.24-8.64-2.64a11,11,0,0,0-2.84,1.06l-.26,1.81a7.85,7.85,0,0,1,5.14-2.14c3.08-.1,4.13,1.12,4.06,2.11-.07,2.05-3.31,1.85-5.52,2.25-3.23.59-4.73,1.91-4.73,3.89s1.79,3.87,4.91,4.07c1.57.09,3.45-.63,5.38-2.91a5.16,5.16,0,0,0,.51,2.61Zm-4-6.05c0,3.24-2.58,5.06-4.25,5-2.25-.1-4-2.08-2.25-4.42a5.42,5.42,0,0,1,3.45-1.65,15.83,15.83,0,0,0,3-.86Z"/><path class="cls-2" d="M151.61,26.25a7,7,0,0,1-.51-2.75V17.33c0-3.34-1.45-4.1-3.16-4a7.22,7.22,0,0,0-5.23,3c-.44-2.51-1.71-3.07-3.17-3-1.89.1-3.52,1-5.19,2.88a5.24,5.24,0,0,0-.33-2.65h-3.34a6,6,0,0,1,.87,3.3v6.65a4.66,4.66,0,0,1-.51,2.74h3.82a6.35,6.35,0,0,1-.51-2.74v-4.1A5.36,5.36,0,0,1,137.47,15c2.69-1.26,2.47,3.43,2.47,3.76V23.5a4.71,4.71,0,0,1-.5,2.75h3.81a6.3,6.3,0,0,1-.51-2.75V19.44a5.34,5.34,0,0,1,3.13-4.52c2.68-1.26,2.46,3.43,2.46,3.76V23.5a5.06,5.06,0,0,1-.51,2.75Z"/><path class="cls-2" d="M174.65,26.31a8.67,8.67,0,0,1-2.18-2.94l-7-15.1h-.54L157.79,23.8a8.65,8.65,0,0,1-1.56,2.51h1.68l3-6.6h6.62l3,6.6Zm-7.74-7.86h-5.38l2.7-5.88Z"/><path class="cls-2" d="M179.19,10.19a1.7,1.7,0,0,0-3.38,0,1.7,1.7,0,0,0,3.38,0Zm.21,16.09a5.71,5.71,0,0,1-.51-2.78V16.33a5.6,5.6,0,0,1,.51-2.74h-3.81a5.38,5.38,0,0,1,.51,2.74V23.5a4.73,4.73,0,0,1-.51,2.78Z"/><path class="cls-2" d="M193,13.36c-4.32-.72-6.47,1.32-7.66,2.88a5.53,5.53,0,0,0-.33-2.65h-3.35a5.87,5.87,0,0,1,.87,3.3v6.65a4.74,4.74,0,0,1-.5,2.74h3.8a5.61,5.61,0,0,1-.49-2.74v-4.1c0-2.11,2.57-6.24,6.2-4.29Z"/><path class="cls-2" d="M197.32,26.28a5,5,0,0,1-.51-2.81V10.06a5.11,5.11,0,0,1,.51-2.84h-3.81a5.11,5.11,0,0,1,.51,2.84V23.47a5.78,5.78,0,0,1-.51,2.81Z"/><path class="cls-2" d="M203.54,10.19a1.7,1.7,0,0,0-3.38,0,1.7,1.7,0,0,0,3.38,0Zm.22,16.09a5.49,5.49,0,0,1-.51-2.78V16.33a5.38,5.38,0,0,1,.51-2.74h-3.82a5.38,5.38,0,0,1,.51,2.74V23.5a4.73,4.73,0,0,1-.51,2.78Z"/><path class="cls-2" d="M220.51,26.28a6.7,6.7,0,0,1-.47-2.74V17.39c0-1.85-.26-2.24-1.16-3a6.52,6.52,0,0,0-3.93-1,7.65,7.65,0,0,0-5.27,2.88,5.28,5.28,0,0,0-.32-2.65H206a5.92,5.92,0,0,1,.88,3.3v6.65a4.67,4.67,0,0,1-.52,2.74h3.82a6.35,6.35,0,0,1-.51-2.74v-4.1a5.44,5.44,0,0,1,4.87-5c2.37-.07,2.69,1.09,2.69,4.25v4.8a5.08,5.08,0,0,1-.5,2.74Z"/><path class="cls-2" d="M236.67,18.64c-.5-5.05-4.54-5.61-7-5.34-5.5.62-7.39,4.92-6.95,7.56a7,7,0,0,0,2.66,4.33,8.73,8.73,0,0,0,10.06-.27l-.55-.59a6.57,6.57,0,0,1-4.13,1.25C228,25.46,225.55,23,226,18.64Zm-3.34-1h-7.16a4.17,4.17,0,0,1,3.89-3.43C230.9,14.16,233.15,14.26,233.33,17.65Z"/><path class="cls-2" d="M249.12,22.88c.36-2.65-4.18-4.17-5.6-4.66-2.25-.83-3.05-1.42-3-2.54,0-.87,1.09-1.46,2.32-1.49a8.5,8.5,0,0,1,5.34,2.08L248,14.49a10.77,10.77,0,0,0-5.16-1.23c-2.73.1-4.51,1.23-4.76,2.55-.62,2.83,2.21,3.9,4.5,4.72,6.43,2.35,3.31,5.22.15,5.22a9.26,9.26,0,0,1-5.38-2.25l.22,1.75a10.36,10.36,0,0,0,5,1.42C245.82,26.74,248.83,25.15,249.12,22.88Z"/></g></g></svg>