<svg xmlns="http://www.w3.org/2000/svg" viewBox="0 0 45.56 27.29"><defs><style>.cls-1{fill:#d09b2c;}</style></defs><g id="Layer_2" data-name="Layer 2"><g id="Calque_1" data-name="Calque 1"><path class="cls-1" d="M22.78,24.66a14.66,14.66,0,0,1-8.91,2.63C9.1,27.29,4,24.86,2.42,24.91a3,3,0,0,0-1.37.24c-.67.28-1.1-.16-1-.54A5.45,5.45,0,0,1,1,23a9.15,9.15,0,0,1,2.05-1.87,7.46,7.46,0,0,1,5.28-1.41,1.87,1.87,0,0,1,1.19.67c1.54,1.48,4.32,3.34,6.46,3.72.22,0,1.19.12,1.21-.15s-.26-.23-.35-.25a15,15,0,0,1-7.31-4.18A17.6,17.6,0,0,1,6,14.72c-.69-1.34-1.67-4-3.45-4.9-.39-.19-.4-.92.42-1.11a13.54,13.54,0,0,1,8.26,1.78,4.49,4.49,0,0,1,2.23,2.13s.1.05.12.48c.22,6,2.87,8,4.15,9,.52.4,1.16.57,1.34.39s-.13-.27-.27-.36c-3.69-2.43-4.4-5.6-4.6-9s1.23-6.32,2.14-8.72a5.6,5.6,0,0,0,.25-3.19c-.26-.89,0-1.1.51-1.17S18.3,1,18.56,1.27a14.24,14.24,0,0,1,1.86,3,21,21,0,0,1,2,8.73c0,2.82-.56,3-1.9,3.64a2.51,2.51,0,0,0-1.74,2.21c0,.89.66,1.55,1.87,2.06l.29.09c.53.13,1,0,1-.19s-.52-.25-.52-.25c-1.18-.29-2-1-2-1.71,0-1,1.45-2.08,3.3-2.08h.2c1.85,0,3.29,1,3.29,2.07,0,.76-.81,1.43-2,1.72,0,0-.53.07-.53.24s.44.33,1,.2l.29-.09c1.21-.51,1.87-1.18,1.87-2.06A2.5,2.5,0,0,0,25,16.64C23.7,16,23.19,15.82,23.15,13a20.91,20.91,0,0,1,2-8.73,13.72,13.72,0,0,1,1.87-3C27.26,1,28-.07,28.51,0s.76.29.5,1.17a5.6,5.6,0,0,0,.26,3.2c.89,2.4,2.33,5.34,2.13,8.72s-.91,6.56-4.6,9c-.14.1-.34.28-.26.37s.82,0,1.34-.39c1.27-.93,3.92-2.95,4.14-9,0-.43.13-.49.13-.49a4.45,4.45,0,0,1,2.22-2.12,13.55,13.55,0,0,1,8.26-1.78c.83.19.82.92.42,1.1-1.78.9-2.75,3.56-3.45,4.91A17,17,0,0,1,36,19.56a15.05,15.05,0,0,1-7.3,4.18c-.09,0-.36.08-.35.25s1,.17,1.21.15c2.14-.38,4.91-2.25,6.46-3.72a1.87,1.87,0,0,1,1.19-.67,7.47,7.47,0,0,1,5.28,1.41,8.65,8.65,0,0,1,2,1.87,5.51,5.51,0,0,1,1,1.58c.06.38-.38.82-1,.54a3.2,3.2,0,0,0-1.37-.25c-1.6,0-6.69,2.39-11.46,2.38A14.68,14.68,0,0,1,22.78,24.66Z"/></g></g></svg>